# xmcd
#
# Track frame offsets:
#	150
#	11585
#	28337
#	41455
#	45502
#	60347
#	77907
#	93510
#	109340
#	120107
#	122257
#	135047
#	139117
#	163462
#	172742
#	177410
#	189917
#	203290
#	220007
#	230317
#	256630
#
# Disc length: 3612 seconds
#
# Revision: 4
# Processed by: cddbd v1.5.2PL0 Copyright (c) Steve Scherf et al.
# Submitted via: EasyCDDAExtractor 9.1.3.1
#
DISCID=fe0e1a15
DTITLE=Big Bill Broonzy - The Bill Broonzy Story - Disc 1
DYEAR=1957
DGENRE=Blues
TTITLE0=Key To The Highway
TTITLE1=Dialogue
TTITLE2=Mindin' My Own Business
TTITLE3=Dialogue
TTITLE4=Saturday Evening Blues
TTITLE5=Dialogue
TTITLE6=South Bound Train
TTITLE7=Dialogue
TTITLE8=Tell Me What Kind Of Man Jesus Was (Ananias)
TTITLE9=Dialogue
TTITLE10=Swing Low, Sweet Chariot
TTITLE11=Dialogue
TTITLE12=Joe Turner Blues (Vocal)
TTITLE13=Dialogue
TTITLE14=Joe Turner Blues (Instrumental)
TTITLE15=Dialogue
TTITLE16=Plowhand Blues
TTITLE17=Dialogue
TTITLE18=Goin' Down The Road Feelin' Bad
TTITLE19=Dialogue
TTITLE20=Makin' My Getaway
EXTD=YEAR: 1957  ID3G:   0
EXTT0=
EXTT1=
EXTT2=
EXTT3=
EXTT4=
EXTT5=
EXTT6=
EXTT7=
EXTT8=
EXTT9=
EXTT10=
EXTT11=
EXTT12=
EXTT13=
EXTT14=
EXTT15=
EXTT16=
EXTT17=
EXTT18=
EXTT19=
EXTT20=
PLAYORDER=
